<svg xmlns="http://www.w3.org/2000/svg" xmlns:xlink="http://www.w3.org/1999/xlink" width="100" zoomAndPan="magnify" viewBox="0 0 75 37.5" height="50" preserveAspectRatio="xMidYMid meet" version="1.0"><defs><g/><clipPath id="7207907e12"><path d="M 4 12 L 24 12 L 24 28 L 4 28 Z M 4 12 " clip-rule="nonzero"/></clipPath><clipPath id="1dbd4401a9"><path d="M 4.195312 16.410156 L 20.203125 11.8125 L 23.644531 23.796875 L 7.636719 28.394531 Z M 4.195312 16.410156 " clip-rule="nonzero"/></clipPath><clipPath id="40283accb6"><path d="M 16.175781 12.96875 L 4.195312 16.410156 L 11.628906 27.246094 L 23.613281 23.804688 Z M 16.175781 12.96875 " clip-rule="nonzero"/></clipPath><clipPath id="a232428ae4"><path d="M 4 5 L 26 5 L 26 21 L 4 21 Z M 4 5 " clip-rule="nonzero"/></clipPath><clipPath id="9e72cdafae"><path d="M 8.683594 3.691406 L 25.589844 9.6875 L 21.101562 22.34375 L 4.195312 16.34375 Z M 8.683594 3.691406 " clip-rule="nonzero"/></clipPath><clipPath id="bf87c3cc4e"><path d="M 12.902344 5.1875 L 25.558594 9.675781 L 16.847656 20.835938 L 4.195312 16.34375 Z M 12.902344 5.1875 " clip-rule="nonzero"/></clipPath></defs><g clip-path="url(#7207907e12)"><g clip-path="url(#1dbd4401a9)"><g clip-path="url(#40283accb6)"><path fill="#50f603" d="M 4.195312 16.410156 L 20.15625 11.828125 L 23.597656 23.8125 L 7.636719 28.394531 Z M 4.195312 16.410156 " fill-opacity="1" fill-rule="nonzero"/></g></g></g><g clip-path="url(#a232428ae4)"><g clip-path="url(#9e72cdafae)"><g clip-path="url(#bf87c3cc4e)"><path fill="#50f603" d="M 8.683594 3.691406 L 25.539062 9.667969 L 21.050781 22.324219 L 4.195312 16.34375 Z M 8.683594 3.691406 " fill-opacity="1" fill-rule="nonzero"/></g></g></g><g fill="#ffffff" fill-opacity="1"><g transform="translate(23.612919, 18.988303)"><g><path d="M 3.109375 0.078125 C 2.578125 0.078125 2.113281 -0.03125 1.71875 -0.25 C 1.320312 -0.46875 1.007812 -0.789062 0.78125 -1.21875 C 0.5625 -1.65625 0.453125 -2.195312 0.453125 -2.84375 C 0.453125 -3.476562 0.5625 -4.015625 0.78125 -4.453125 C 1.007812 -4.890625 1.320312 -5.21875 1.71875 -5.4375 C 2.113281 -5.65625 2.578125 -5.765625 3.109375 -5.765625 C 3.648438 -5.765625 4.109375 -5.65625 4.484375 -5.4375 C 4.867188 -5.226562 5.144531 -4.90625 5.3125 -4.46875 L 4.5 -3.96875 L 4.390625 -3.96875 C 4.273438 -4.257812 4.113281 -4.46875 3.90625 -4.59375 C 3.695312 -4.726562 3.429688 -4.796875 3.109375 -4.796875 C 2.628906 -4.796875 2.257812 -4.640625 2 -4.328125 C 1.738281 -4.015625 1.609375 -3.519531 1.609375 -2.84375 C 1.609375 -2.164062 1.738281 -1.671875 2 -1.359375 C 2.257812 -1.046875 2.628906 -0.890625 3.109375 -0.890625 C 3.835938 -0.890625 4.285156 -1.25 4.453125 -1.96875 L 4.5625 -1.96875 L 5.375 -1.53125 C 5.226562 -0.988281 4.960938 -0.582031 4.578125 -0.3125 C 4.203125 -0.0507812 3.710938 0.078125 3.109375 0.078125 Z M 3.109375 0.078125 "/></g></g><g transform="translate(29.186863, 18.988303)"><g><path d="M 2.484375 0.078125 C 2.066406 0.078125 1.695312 -0.00390625 1.375 -0.171875 C 1.0625 -0.347656 0.816406 -0.601562 0.640625 -0.9375 C 0.472656 -1.269531 0.390625 -1.671875 0.390625 -2.140625 C 0.390625 -2.609375 0.472656 -3.007812 0.640625 -3.34375 C 0.816406 -3.675781 1.0625 -3.925781 1.375 -4.09375 C 1.695312 -4.269531 2.066406 -4.359375 2.484375 -4.359375 C 2.910156 -4.359375 3.28125 -4.269531 3.59375 -4.09375 C 3.90625 -3.925781 4.148438 -3.675781 4.328125 -3.34375 C 4.503906 -3.007812 4.59375 -2.609375 4.59375 -2.140625 C 4.59375 -1.671875 4.503906 -1.269531 4.328125 -0.9375 C 4.148438 -0.601562 3.90625 -0.347656 3.59375 -0.171875 C 3.28125 -0.00390625 2.910156 0.078125 2.484375 0.078125 Z M 2.484375 -0.828125 C 3.148438 -0.828125 3.484375 -1.265625 3.484375 -2.140625 C 3.484375 -2.585938 3.394531 -2.914062 3.21875 -3.125 C 3.050781 -3.34375 2.804688 -3.453125 2.484375 -3.453125 C 1.816406 -3.453125 1.484375 -3.015625 1.484375 -2.140625 C 1.484375 -1.265625 1.816406 -0.828125 2.484375 -0.828125 Z M 2.484375 -0.828125 "/></g></g><g transform="translate(34.169985, 18.988303)"><g><path d="M 1.15625 -4.796875 C 0.957031 -4.796875 0.796875 -4.851562 0.671875 -4.96875 C 0.554688 -5.09375 0.5 -5.242188 0.5 -5.421875 C 0.5 -5.609375 0.554688 -5.757812 0.671875 -5.875 C 0.796875 -6 0.957031 -6.0625 1.15625 -6.0625 C 1.28125 -6.0625 1.394531 -6.03125 1.5 -5.96875 C 1.601562 -5.914062 1.679688 -5.84375 1.734375 -5.75 C 1.785156 -5.65625 1.8125 -5.546875 1.8125 -5.421875 C 1.8125 -5.304688 1.785156 -5.195312 1.734375 -5.09375 C 1.679688 -5 1.601562 -4.925781 1.5 -4.875 C 1.394531 -4.820312 1.28125 -4.796875 1.15625 -4.796875 Z M 0.625 0 L 0.625 -4.28125 L 1.6875 -4.28125 L 1.6875 0 Z M 0.625 0 "/></g></g><g transform="translate(36.478858, 18.988303)"><g><path d="M 0.625 0 L 0.625 -4.28125 L 1.65625 -4.28125 L 1.65625 -3.65625 L 1.734375 -3.640625 C 1.992188 -4.117188 2.425781 -4.359375 3.03125 -4.359375 C 3.519531 -4.359375 3.878906 -4.222656 4.109375 -3.953125 C 4.347656 -3.691406 4.46875 -3.300781 4.46875 -2.78125 L 4.46875 0 L 3.390625 0 L 3.390625 -2.65625 C 3.390625 -2.9375 3.332031 -3.140625 3.21875 -3.265625 C 3.101562 -3.390625 2.921875 -3.453125 2.671875 -3.453125 C 2.359375 -3.453125 2.113281 -3.351562 1.9375 -3.15625 C 1.769531 -2.957031 1.6875 -2.644531 1.6875 -2.21875 L 1.6875 0 Z M 0.625 0 "/></g></g><g transform="translate(41.500849, 18.988303)"><g><path d="M 2 0.078125 C 1.707031 0.078125 1.4375 0.046875 1.1875 -0.015625 C 0.945312 -0.0859375 0.738281 -0.179688 0.5625 -0.296875 C 0.394531 -0.421875 0.269531 -0.5625 0.1875 -0.71875 L 0.796875 -1.359375 L 0.875 -1.359375 C 1.019531 -1.171875 1.1875 -1.023438 1.375 -0.921875 C 1.570312 -0.828125 1.785156 -0.78125 2.015625 -0.78125 C 2.222656 -0.78125 2.378906 -0.816406 2.484375 -0.890625 C 2.585938 -0.972656 2.640625 -1.082031 2.640625 -1.21875 C 2.640625 -1.332031 2.601562 -1.425781 2.53125 -1.5 C 2.457031 -1.570312 2.332031 -1.628906 2.15625 -1.671875 L 1.59375 -1.8125 C 1.164062 -1.90625 0.851562 -2.054688 0.65625 -2.265625 C 0.46875 -2.472656 0.375 -2.738281 0.375 -3.0625 C 0.375 -3.332031 0.441406 -3.5625 0.578125 -3.75 C 0.710938 -3.945312 0.898438 -4.097656 1.140625 -4.203125 C 1.390625 -4.304688 1.679688 -4.359375 2.015625 -4.359375 C 2.398438 -4.359375 2.71875 -4.300781 2.96875 -4.1875 C 3.21875 -4.082031 3.414062 -3.9375 3.5625 -3.75 L 2.984375 -3.125 L 2.90625 -3.125 C 2.789062 -3.257812 2.65625 -3.359375 2.5 -3.421875 C 2.351562 -3.484375 2.191406 -3.515625 2.015625 -3.515625 C 1.585938 -3.515625 1.375 -3.382812 1.375 -3.125 C 1.375 -3.007812 1.410156 -2.914062 1.484375 -2.84375 C 1.566406 -2.78125 1.707031 -2.722656 1.90625 -2.671875 L 2.4375 -2.5625 C 2.875 -2.46875 3.191406 -2.316406 3.390625 -2.109375 C 3.585938 -1.910156 3.6875 -1.632812 3.6875 -1.28125 C 3.6875 -1.007812 3.617188 -0.769531 3.484375 -0.5625 C 3.359375 -0.351562 3.164062 -0.191406 2.90625 -0.078125 C 2.65625 0.0234375 2.351562 0.078125 2 0.078125 Z M 2 0.078125 "/></g></g><g transform="translate(45.453919, 18.988303)"><g><path d="M 0.625 0 L 0.625 -6 L 1.6875 -6 L 1.6875 -3.71875 L 1.78125 -3.703125 C 1.914062 -3.910156 2.085938 -4.070312 2.296875 -4.1875 C 2.503906 -4.300781 2.753906 -4.359375 3.046875 -4.359375 C 3.992188 -4.359375 4.46875 -3.820312 4.46875 -2.75 L 4.46875 0 L 3.390625 0 L 3.390625 -2.625 C 3.390625 -2.914062 3.332031 -3.125 3.21875 -3.25 C 3.101562 -3.382812 2.921875 -3.453125 2.671875 -3.453125 C 2.367188 -3.453125 2.128906 -3.351562 1.953125 -3.15625 C 1.773438 -2.957031 1.6875 -2.644531 1.6875 -2.21875 L 1.6875 0 Z M 0.625 0 "/></g></g><g transform="translate(50.475911, 18.988303)"><g><path d="M 4.234375 -1.90625 L 1.484375 -1.90625 C 1.515625 -1.53125 1.617188 -1.253906 1.796875 -1.078125 C 1.972656 -0.910156 2.222656 -0.828125 2.546875 -0.828125 C 2.785156 -0.828125 2.976562 -0.875 3.125 -0.96875 C 3.28125 -1.0625 3.40625 -1.203125 3.5 -1.390625 L 3.59375 -1.390625 L 4.296875 -0.921875 C 4.160156 -0.628906 3.953125 -0.390625 3.671875 -0.203125 C 3.390625 -0.015625 3.015625 0.078125 2.546875 0.078125 C 2.097656 0.078125 1.710938 -0.00390625 1.390625 -0.171875 C 1.066406 -0.335938 0.816406 -0.585938 0.640625 -0.921875 C 0.472656 -1.253906 0.390625 -1.660156 0.390625 -2.140625 C 0.390625 -2.628906 0.476562 -3.039062 0.65625 -3.375 C 0.84375 -3.707031 1.09375 -3.953125 1.40625 -4.109375 C 1.71875 -4.273438 2.070312 -4.359375 2.46875 -4.359375 C 3.070312 -4.359375 3.535156 -4.195312 3.859375 -3.875 C 4.179688 -3.5625 4.34375 -3.09375 4.34375 -2.46875 C 4.34375 -2.238281 4.332031 -2.066406 4.3125 -1.953125 Z M 3.3125 -2.59375 C 3.300781 -2.914062 3.222656 -3.148438 3.078125 -3.296875 C 2.941406 -3.453125 2.738281 -3.53125 2.46875 -3.53125 C 1.914062 -3.53125 1.59375 -3.21875 1.5 -2.59375 Z M 3.3125 -2.59375 "/></g></g><g transform="translate(55.136412, 18.988303)"><g><path d="M 1.78125 0.078125 C 1.394531 0.078125 1.097656 -0.0234375 0.890625 -0.234375 C 0.691406 -0.441406 0.59375 -0.757812 0.59375 -1.1875 L 0.59375 -6 L 1.671875 -6 L 1.671875 -1.21875 C 1.671875 -0.957031 1.773438 -0.828125 1.984375 -0.828125 C 2.046875 -0.828125 2.113281 -0.835938 2.1875 -0.859375 L 2.25 -0.84375 L 2.34375 -0.015625 C 2.28125 0.015625 2.195312 0.0351562 2.09375 0.046875 C 2 0.0664062 1.894531 0.078125 1.78125 0.078125 Z M 1.78125 0.078125 "/></g></g><g transform="translate(57.600764, 18.988303)"><g><path d="M 2.953125 -1.015625 L 3.234375 -0.21875 C 3.117188 -0.125 2.972656 -0.0507812 2.796875 0 C 2.617188 0.0507812 2.421875 0.078125 2.203125 0.078125 C 1.734375 0.078125 1.378906 -0.046875 1.140625 -0.296875 C 0.898438 -0.546875 0.78125 -0.910156 0.78125 -1.390625 L 0.78125 -3.4375 L 0.125 -3.4375 L 0.125 -4.28125 L 0.78125 -4.28125 L 0.78125 -5.125 L 1.859375 -5.296875 L 1.859375 -4.28125 L 3.078125 -4.28125 L 3.078125 -3.4375 L 1.859375 -3.4375 L 1.859375 -1.46875 C 1.859375 -1.257812 1.898438 -1.101562 1.984375 -1 C 2.078125 -0.90625 2.207031 -0.859375 2.375 -0.859375 C 2.5625 -0.859375 2.726562 -0.910156 2.875 -1.015625 Z M 2.953125 -1.015625 "/></g></g><g transform="translate(60.931915, 18.988303)"><g><path d="M 4.234375 -1.90625 L 1.484375 -1.90625 C 1.515625 -1.53125 1.617188 -1.253906 1.796875 -1.078125 C 1.972656 -0.910156 2.222656 -0.828125 2.546875 -0.828125 C 2.785156 -0.828125 2.976562 -0.875 3.125 -0.96875 C 3.28125 -1.0625 3.40625 -1.203125 3.5 -1.390625 L 3.59375 -1.390625 L 4.296875 -0.921875 C 4.160156 -0.628906 3.953125 -0.390625 3.671875 -0.203125 C 3.390625 -0.015625 3.015625 0.078125 2.546875 0.078125 C 2.097656 0.078125 1.710938 -0.00390625 1.390625 -0.171875 C 1.066406 -0.335938 0.816406 -0.585938 0.640625 -0.921875 C 0.472656 -1.253906 0.390625 -1.660156 0.390625 -2.140625 C 0.390625 -2.628906 0.476562 -3.039062 0.65625 -3.375 C 0.84375 -3.707031 1.09375 -3.953125 1.40625 -4.109375 C 1.71875 -4.273438 2.070312 -4.359375 2.46875 -4.359375 C 3.070312 -4.359375 3.535156 -4.195312 3.859375 -3.875 C 4.179688 -3.5625 4.34375 -3.09375 4.34375 -2.46875 C 4.34375 -2.238281 4.332031 -2.066406 4.3125 -1.953125 Z M 3.3125 -2.59375 C 3.300781 -2.914062 3.222656 -3.148438 3.078125 -3.296875 C 2.941406 -3.453125 2.738281 -3.53125 2.46875 -3.53125 C 1.914062 -3.53125 1.59375 -3.21875 1.5 -2.59375 Z M 3.3125 -2.59375 "/></g></g><g transform="translate(65.592417, 18.988303)"><g><path d="M 0.625 0 L 0.625 -4.28125 L 1.65625 -4.28125 L 1.65625 -3.640625 L 1.75 -3.625 C 1.851562 -3.863281 1.988281 -4.039062 2.15625 -4.15625 C 2.320312 -4.269531 2.523438 -4.328125 2.765625 -4.328125 C 3.003906 -4.328125 3.1875 -4.285156 3.3125 -4.203125 L 3.140625 -3.265625 L 3.0625 -3.25 C 2.988281 -3.28125 2.914062 -3.300781 2.84375 -3.3125 C 2.78125 -3.320312 2.707031 -3.328125 2.625 -3.328125 C 2.320312 -3.328125 2.085938 -3.222656 1.921875 -3.015625 C 1.765625 -2.804688 1.6875 -2.46875 1.6875 -2 L 1.6875 0 Z M 0.625 0 "/></g></g></g></svg>